# This file uses centimeters as units for non-parametric coordinates.

mtllib mocap_liangjian01_scene0.mtl
g default
v 1.154987 0.000000 -87.255039
v 63.154987 0.000000 -87.255039
v 1.154987 25.000000 -87.255039
v 63.154987 25.000000 -87.255039
v 1.154987 25.000000 -136.255039
v 63.154987 25.000000 -136.255039
v 1.154987 0.000000 -136.255039
v 63.154987 0.000000 -136.255039
vt 0.375000 0.000000
vt 0.625000 0.000000
vt 0.375000 0.250000
vt 0.625000 0.250000
vt 0.375000 0.500000
vt 0.625000 0.500000
vt 0.375000 0.750000
vt 0.625000 0.750000
vt 0.375000 1.000000
vt 0.625000 1.000000
vt 0.875000 0.000000
vt 0.875000 0.250000
vt 0.125000 0.000000
vt 0.125000 0.250000
vn 0.000000 0.000000 1.000000
vn 0.000000 0.000000 1.000000
vn 0.000000 0.000000 1.000000
vn 0.000000 0.000000 1.000000
vn 0.000000 1.000000 0.000000
vn 0.000000 1.000000 0.000000
vn 0.000000 1.000000 0.000000
vn 0.000000 1.000000 0.000000
vn 0.000000 0.000000 -1.000000
vn 0.000000 0.000000 -1.000000
vn 0.000000 0.000000 -1.000000
vn 0.000000 0.000000 -1.000000
vn 0.000000 -1.000000 0.000000
vn 0.000000 -1.000000 0.000000
vn 0.000000 -1.000000 0.000000
vn 0.000000 -1.000000 0.000000
vn 1.000000 0.000000 0.000000
vn 1.000000 0.000000 0.000000
vn 1.000000 0.000000 0.000000
vn 1.000000 0.000000 0.000000
vn -1.000000 0.000000 0.000000
vn -1.000000 0.000000 0.000000
vn -1.000000 0.000000 0.000000
vn -1.000000 0.000000 0.000000
s off
g obstacle
usemtl initialShadingGroup
f 1/1/1 2/2/2 4/4/3 3/3/4
f 3/3/5 4/4/6 6/6/7 5/5/8
f 5/5/9 6/6/10 8/8/11 7/7/12
f 7/7/13 8/8/14 2/10/15 1/9/16
f 2/2/17 8/11/18 6/12/19 4/4/20
f 7/13/21 1/1/22 3/3/23 5/14/24
g default
v 98.918925 0.000000 22.500000
v 143.918925 0.000000 22.500000
v 98.918925 91.000000 22.500000
v 143.918925 91.000000 22.500000
v 98.918925 91.000000 -22.500000
v 143.918925 91.000000 -22.500000
v 98.918925 0.000000 -22.500000
v 143.918925 0.000000 -22.500000
vt 0.375000 0.000000
vt 0.625000 0.000000
vt 0.375000 0.250000
vt 0.625000 0.250000
vt 0.375000 0.500000
vt 0.625000 0.500000
vt 0.375000 0.750000
vt 0.625000 0.750000
vt 0.375000 1.000000
vt 0.625000 1.000000
vt 0.875000 0.000000
vt 0.875000 0.250000
vt 0.125000 0.000000
vt 0.125000 0.250000
vn 0.000000 0.000000 1.000000
vn 0.000000 0.000000 1.000000
vn 0.000000 0.000000 1.000000
vn 0.000000 0.000000 1.000000
vn 0.000000 1.000000 0.000000
vn 0.000000 1.000000 0.000000
vn 0.000000 1.000000 0.000000
vn 0.000000 1.000000 0.000000
vn 0.000000 0.000000 -1.000000
vn 0.000000 0.000000 -1.000000
vn 0.000000 0.000000 -1.000000
vn 0.000000 0.000000 -1.000000
vn 0.000000 -1.000000 0.000000
vn 0.000000 -1.000000 0.000000
vn 0.000000 -1.000000 0.000000
vn 0.000000 -1.000000 0.000000
vn 1.000000 0.000000 0.000000
vn 1.000000 0.000000 0.000000
vn 1.000000 0.000000 0.000000
vn 1.000000 0.000000 0.000000
vn -1.000000 0.000000 0.000000
vn -1.000000 0.000000 0.000000
vn -1.000000 0.000000 0.000000
vn -1.000000 0.000000 0.000000
s off
g table20
usemtl initialShadingGroup
f 9/15/25 10/16/26 12/18/27 11/17/28
f 11/17/29 12/18/30 14/20/31 13/19/32
f 13/19/33 14/20/34 16/22/35 15/21/36
f 15/21/37 16/22/38 10/24/39 9/23/40
f 10/16/41 16/25/42 14/26/43 12/18/44
f 15/27/45 9/15/46 11/17/47 13/28/48
g default
v -86.293465 0.000000 0.000599
v -89.134257 0.000000 -5.574769
v -93.558896 0.000000 -9.999407
v -99.134265 0.000000 -12.840198
v -105.314608 0.000000 -13.819067
v -111.494951 0.000000 -12.840196
v -117.070317 0.000000 -9.999403
v -121.494952 0.000000 -5.574766
v -124.335743 0.000000 0.000601
v -125.314612 0.000000 6.180943
v -124.335743 0.000000 12.361284
v -121.494951 0.000000 17.936650
v -117.070315 0.000000 22.361285
v -111.494949 0.000000 25.202076
v -105.314608 0.000000 26.180945
v -99.134268 0.000000 25.202075
v -93.558903 0.000000 22.361284
v -89.134268 0.000000 17.936649
v -86.293477 0.000000 12.361283
v -85.314608 0.000000 6.180943
v -86.293465 47.000000 0.000599
v -89.134257 47.000000 -5.574769
v -93.558896 47.000000 -9.999407
v -99.134265 47.000000 -12.840198
v -105.314608 47.000000 -13.819067
v -111.494951 47.000000 -12.840196
v -117.070317 47.000000 -9.999403
v -121.494952 47.000000 -5.574766
v -124.335743 47.000000 0.000601
v -125.314612 47.000000 6.180943
v -124.335743 47.000000 12.361284
v -121.494951 47.000000 17.936650
v -117.070315 47.000000 22.361285
v -111.494949 47.000000 25.202076
v -105.314608 47.000000 26.180945
v -99.134268 47.000000 25.202075
v -93.558903 47.000000 22.361284
v -89.134268 47.000000 17.936649
v -86.293477 47.000000 12.361283
v -85.314608 47.000000 6.180943
v -105.314608 0.000000 6.180943
v -105.314608 47.000000 6.180943
vt 0.648603 0.107966
vt 0.626409 0.064408
vt 0.591842 0.029841
vt 0.548284 0.007647
vt 0.500000 -0.000000
vt 0.451716 0.007647
vt 0.408159 0.029841
vt 0.373591 0.064409
vt 0.351397 0.107966
vt 0.343750 0.156250
vt 0.351397 0.204534
vt 0.373591 0.248091
vt 0.408159 0.282659
vt 0.451716 0.304853
vt 0.500000 0.312500
vt 0.548284 0.304853
vt 0.591841 0.282659
vt 0.626409 0.248091
vt 0.648603 0.204534
vt 0.656250 0.156250
vt 0.375000 0.312500
vt 0.387500 0.312500
vt 0.400000 0.312500
vt 0.412500 0.312500
vt 0.425000 0.312500
vt 0.437500 0.312500
vt 0.450000 0.312500
vt 0.462500 0.312500
vt 0.475000 0.312500
vt 0.487500 0.312500
vt 0.500000 0.312500
vt 0.512500 0.312500
vt 0.525000 0.312500
vt 0.537500 0.312500
vt 0.550000 0.312500
vt 0.562500 0.312500
vt 0.575000 0.312500
vt 0.587500 0.312500
vt 0.600000 0.312500
vt 0.612500 0.312500
vt 0.625000 0.312500
vt 0.375000 0.688440
vt 0.387500 0.688440
vt 0.400000 0.688440
vt 0.412500 0.688440
vt 0.425000 0.688440
vt 0.437500 0.688440
vt 0.450000 0.688440
vt 0.462500 0.688440
vt 0.475000 0.688440
vt 0.487500 0.688440
vt 0.500000 0.688440
vt 0.512500 0.688440
vt 0.525000 0.688440
vt 0.537500 0.688440
vt 0.550000 0.688440
vt 0.562500 0.688440
vt 0.575000 0.688440
vt 0.587500 0.688440
vt 0.600000 0.688440
vt 0.612500 0.688440
vt 0.625000 0.688440
vt 0.648603 0.795466
vt 0.626409 0.751908
vt 0.591842 0.717341
vt 0.548284 0.695147
vt 0.500000 0.687500
vt 0.451716 0.695147
vt 0.408159 0.717341
vt 0.373591 0.751909
vt 0.351397 0.795466
vt 0.343750 0.843750
vt 0.351397 0.892034
vt 0.373591 0.935591
vt 0.408159 0.970159
vt 0.451716 0.992353
vt 0.500000 1.000000
vt 0.548284 0.992353
vt 0.591841 0.970159
vt 0.626409 0.935591
vt 0.648603 0.892034
vt 0.656250 0.843750
vt 0.500000 0.150000
vt 0.500000 0.837500
vn 0.951057 0.000000 -0.309016
vn 0.809017 0.000000 -0.587785
vn 0.809017 0.000000 -0.587785
vn 0.951057 0.000000 -0.309016
vn 0.587785 0.000000 -0.809017
vn 0.587785 0.000000 -0.809017
vn 0.309017 0.000000 -0.951057
vn 0.309017 0.000000 -0.951057
vn -0.000000 0.000000 -1.000000
vn -0.000000 0.000000 -1.000000
vn -0.309017 0.000000 -0.951056
vn -0.309017 0.000000 -0.951056
vn -0.587785 0.000000 -0.809017
vn -0.587785 0.000000 -0.809017
vn -0.809017 0.000000 -0.587785
vn -0.809017 0.000000 -0.587785
vn -0.951057 0.000000 -0.309017
vn -0.951057 0.000000 -0.309017
vn -1.000000 0.000000 0.000000
vn -1.000000 0.000000 0.000000
vn -0.951057 0.000000 0.309017
vn -0.951057 0.000000 0.309017
vn -0.809017 0.000000 0.587785
vn -0.809017 0.000000 0.587785
vn -0.587785 0.000000 0.809017
vn -0.587785 0.000000 0.809017
vn -0.309017 0.000000 0.951057
vn -0.309017 0.000000 0.951057
vn 0.000000 0.000000 1.000000
vn 0.000000 0.000000 1.000000
vn 0.309017 0.000000 0.951056
vn 0.309017 0.000000 0.951056
vn 0.587785 0.000000 0.809017
vn 0.587785 0.000000 0.809017
vn 0.809017 0.000000 0.587785
vn 0.809017 0.000000 0.587785
vn 0.951057 0.000000 0.309017
vn 0.951057 0.000000 0.309017
vn 1.000000 0.000000 0.000001
vn 1.000000 0.000000 0.000001
vn 0.000000 -1.000000 0.000000
vn 0.000000 -1.000000 0.000000
vn 0.000000 -1.000000 0.000000
vn 0.000000 -1.000000 0.000000
vn 0.000000 -1.000000 0.000000
vn 0.000000 -1.000000 0.000000
vn 0.000000 -1.000000 0.000000
vn 0.000000 -1.000000 0.000000
vn 0.000000 -1.000000 0.000000
vn 0.000000 -1.000000 0.000000
vn 0.000000 -1.000000 0.000000
vn 0.000000 -1.000000 0.000000
vn 0.000000 -1.000000 0.000000
vn 0.000000 -1.000000 0.000000
vn 0.000000 -1.000000 0.000000
vn 0.000000 -1.000000 0.000000
vn 0.000000 -1.000000 0.000000
vn 0.000000 -1.000000 0.000000
vn 0.000000 -1.000000 0.000000
vn 0.000000 -1.000000 0.000000
vn 0.000000 -1.000000 0.000000
vn 0.000000 1.000000 0.000000
vn 0.000000 1.000000 0.000000
vn 0.000000 1.000000 0.000000
vn 0.000000 1.000000 0.000000
vn 0.000000 1.000000 0.000000
vn 0.000000 1.000000 0.000000
vn 0.000000 1.000000 0.000000
vn 0.000000 1.000000 0.000000
vn 0.000000 1.000000 0.000000
vn 0.000000 1.000000 0.000000
vn 0.000000 1.000000 0.000000
vn 0.000000 1.000000 0.000000
vn 0.000000 1.000000 0.000000
vn 0.000000 1.000000 0.000000
vn 0.000000 1.000000 0.000000
vn 0.000000 1.000000 0.000000
vn 0.000000 1.000000 0.000000
vn 0.000000 1.000000 0.000000
vn 0.000000 1.000000 0.000000
vn 0.000000 1.000000 0.000000
vn 0.000000 1.000000 0.000000
s 1
g chair152
usemtl initialShadingGroup
f 17/49/49 18/50/50 38/71/51 37/70/52
f 18/50/50 19/51/53 39/72/54 38/71/51
f 19/51/53 20/52/55 40/73/56 39/72/54
f 20/52/55 21/53/57 41/74/58 40/73/56
f 21/53/57 22/54/59 42/75/60 41/74/58
f 22/54/59 23/55/61 43/76/62 42/75/60
f 23/55/61 24/56/63 44/77/64 43/76/62
f 24/56/63 25/57/65 45/78/66 44/77/64
f 25/57/65 26/58/67 46/79/68 45/78/66
f 26/58/67 27/59/69 47/80/70 46/79/68
f 27/59/69 28/60/71 48/81/72 47/80/70
f 28/60/71 29/61/73 49/82/74 48/81/72
f 29/61/73 30/62/75 50/83/76 49/82/74
f 30/62/75 31/63/77 51/84/78 50/83/76
f 31/63/77 32/64/79 52/85/80 51/84/78
f 32/64/79 33/65/81 53/86/82 52/85/80
f 33/65/81 34/66/83 54/87/84 53/86/82
f 34/66/83 35/67/85 55/88/86 54/87/84
f 35/67/85 36/68/87 56/89/88 55/88/86
f 36/68/87 17/69/49 37/90/52 56/89/88
s 2
f 18/30/89 17/29/90 57/111/91
f 19/31/92 18/30/89 57/111/91
f 20/32/93 19/31/92 57/111/91
f 21/33/94 20/32/93 57/111/91
f 22/34/95 21/33/94 57/111/91
f 23/35/96 22/34/95 57/111/91
f 24/36/97 23/35/96 57/111/91
f 25/37/98 24/36/97 57/111/91
f 26/38/99 25/37/98 57/111/91
f 27/39/100 26/38/99 57/111/91
f 28/40/101 27/39/100 57/111/91
f 29/41/102 28/40/101 57/111/91
f 30/42/103 29/41/102 57/111/91
f 31/43/104 30/42/103 57/111/91
f 32/44/105 31/43/104 57/111/91
f 33/45/106 32/44/105 57/111/91
f 34/46/107 33/45/106 57/111/91
f 35/47/108 34/46/107 57/111/91
f 36/48/109 35/47/108 57/111/91
f 17/29/90 36/48/109 57/111/91
s 3
f 37/109/110 38/108/111 58/112/112
f 38/108/111 39/107/113 58/112/112
f 39/107/113 40/106/114 58/112/112
f 40/106/114 41/105/115 58/112/112
f 41/105/115 42/104/116 58/112/112
f 42/104/116 43/103/117 58/112/112
f 43/103/117 44/102/118 58/112/112
f 44/102/118 45/101/119 58/112/112
f 45/101/119 46/100/120 58/112/112
f 46/100/120 47/99/121 58/112/112
f 47/99/121 48/98/122 58/112/112
f 48/98/122 49/97/123 58/112/112
f 49/97/123 50/96/124 58/112/112
f 50/96/124 51/95/125 58/112/112
f 51/95/125 52/94/126 58/112/112
f 52/94/126 53/93/127 58/112/112
f 53/93/127 54/92/128 58/112/112
f 54/92/128 55/91/129 58/112/112
f 55/91/129 56/110/130 58/112/112
f 56/110/130 37/109/110 58/112/112
g default
v -26.051312 0.000000 50.708769
v -28.892104 0.000000 45.133400
v -33.316742 0.000000 40.708763
v -38.892111 0.000000 37.867972
v -45.072454 0.000000 36.889103
v -51.252797 0.000000 37.867973
v -56.828164 0.000000 40.708766
v -61.252799 0.000000 45.133404
v -64.093590 0.000000 50.708771
v -65.072459 0.000000 56.889112
v -64.093590 0.000000 63.069453
v -61.252798 0.000000 68.644819
v -56.828162 0.000000 73.069455
v -51.252796 0.000000 75.910245
v -45.072455 0.000000 76.889115
v -38.892115 0.000000 75.910244
v -33.316750 0.000000 73.069453
v -28.892114 0.000000 68.644818
v -26.051324 0.000000 63.069452
v -25.072454 0.000000 56.889112
v -26.051312 47.000000 50.708769
v -28.892104 47.000000 45.133400
v -33.316742 47.000000 40.708763
v -38.892111 47.000000 37.867972
v -45.072454 47.000000 36.889103
v -51.252797 47.000000 37.867973
v -56.828164 47.000000 40.708766
v -61.252799 47.000000 45.133404
v -64.093590 47.000000 50.708771
v -65.072459 47.000000 56.889112
v -64.093590 47.000000 63.069453
v -61.252798 47.000000 68.644819
v -56.828162 47.000000 73.069455
v -51.252796 47.000000 75.910245
v -45.072455 47.000000 76.889115
v -38.892115 47.000000 75.910244
v -33.316750 47.000000 73.069453
v -28.892114 47.000000 68.644818
v -26.051324 47.000000 63.069452
v -25.072454 47.000000 56.889112
v -45.072454 0.000000 56.889112
v -45.072454 47.000000 56.889112
vt 0.648603 0.107966
vt 0.626409 0.064408
vt 0.591842 0.029841
vt 0.548284 0.007647
vt 0.500000 -0.000000
vt 0.451716 0.007647
vt 0.408159 0.029841
vt 0.373591 0.064409
vt 0.351397 0.107966
vt 0.343750 0.156250
vt 0.351397 0.204534
vt 0.373591 0.248091
vt 0.408159 0.282659
vt 0.451716 0.304853
vt 0.500000 0.312500
vt 0.548284 0.304853
vt 0.591841 0.282659
vt 0.626409 0.248091
vt 0.648603 0.204534
vt 0.656250 0.156250
vt 0.375000 0.312500
vt 0.387500 0.312500
vt 0.400000 0.312500
vt 0.412500 0.312500
vt 0.425000 0.312500
vt 0.437500 0.312500
vt 0.450000 0.312500
vt 0.462500 0.312500
vt 0.475000 0.312500
vt 0.487500 0.312500
vt 0.500000 0.312500
vt 0.512500 0.312500
vt 0.525000 0.312500
vt 0.537500 0.312500
vt 0.550000 0.312500
vt 0.562500 0.312500
vt 0.575000 0.312500
vt 0.587500 0.312500
vt 0.600000 0.312500
vt 0.612500 0.312500
vt 0.625000 0.312500
vt 0.375000 0.688440
vt 0.387500 0.688440
vt 0.400000 0.688440
vt 0.412500 0.688440
vt 0.425000 0.688440
vt 0.437500 0.688440
vt 0.450000 0.688440
vt 0.462500 0.688440
vt 0.475000 0.688440
vt 0.487500 0.688440
vt 0.500000 0.688440
vt 0.512500 0.688440
vt 0.525000 0.688440
vt 0.537500 0.688440
vt 0.550000 0.688440
vt 0.562500 0.688440
vt 0.575000 0.688440
vt 0.587500 0.688440
vt 0.600000 0.688440
vt 0.612500 0.688440
vt 0.625000 0.688440
vt 0.648603 0.795466
vt 0.626409 0.751908
vt 0.591842 0.717341
vt 0.548284 0.695147
vt 0.500000 0.687500
vt 0.451716 0.695147
vt 0.408159 0.717341
vt 0.373591 0.751909
vt 0.351397 0.795466
vt 0.343750 0.843750
vt 0.351397 0.892034
vt 0.373591 0.935591
vt 0.408159 0.970159
vt 0.451716 0.992353
vt 0.500000 1.000000
vt 0.548284 0.992353
vt 0.591841 0.970159
vt 0.626409 0.935591
vt 0.648603 0.892034
vt 0.656250 0.843750
vt 0.500000 0.150000
vt 0.500000 0.837500
vn 0.951057 0.000000 -0.309016
vn 0.809017 0.000000 -0.587785
vn 0.809017 0.000000 -0.587785
vn 0.951057 0.000000 -0.309016
vn 0.587785 0.000000 -0.809017
vn 0.587785 0.000000 -0.809017
vn 0.309017 0.000000 -0.951057
vn 0.309017 0.000000 -0.951057
vn -0.000000 0.000000 -1.000000
vn -0.000000 0.000000 -1.000000
vn -0.309017 0.000000 -0.951056
vn -0.309017 0.000000 -0.951056
vn -0.587785 0.000000 -0.809017
vn -0.587785 0.000000 -0.809017
vn -0.809017 0.000000 -0.587785
vn -0.809017 0.000000 -0.587785
vn -0.951057 0.000000 -0.309017
vn -0.951057 0.000000 -0.309017
vn -1.000000 0.000000 0.000000
vn -1.000000 0.000000 0.000000
vn -0.951057 0.000000 0.309017
vn -0.951057 0.000000 0.309017
vn -0.809017 0.000000 0.587785
vn -0.809017 0.000000 0.587785
vn -0.587785 0.000000 0.809017
vn -0.587785 0.000000 0.809017
vn -0.309017 0.000000 0.951057
vn -0.309017 0.000000 0.951057
vn 0.000000 0.000000 1.000000
vn 0.000000 0.000000 1.000000
vn 0.309017 0.000000 0.951056
vn 0.309017 0.000000 0.951056
vn 0.587785 0.000000 0.809017
vn 0.587785 0.000000 0.809017
vn 0.809017 0.000000 0.587785
vn 0.809017 0.000000 0.587785
vn 0.951057 0.000000 0.309017
vn 0.951057 0.000000 0.309017
vn 1.000000 0.000000 0.000001
vn 1.000000 0.000000 0.000001
vn 0.000000 -1.000000 0.000000
vn 0.000000 -1.000000 0.000000
vn 0.000000 -1.000000 0.000000
vn 0.000000 -1.000000 0.000000
vn 0.000000 -1.000000 0.000000
vn 0.000000 -1.000000 0.000000
vn 0.000000 -1.000000 0.000000
vn 0.000000 -1.000000 0.000000
vn 0.000000 -1.000000 0.000000
vn 0.000000 -1.000000 0.000000
vn 0.000000 -1.000000 0.000000
vn 0.000000 -1.000000 0.000000
vn 0.000000 -1.000000 0.000000
vn 0.000000 -1.000000 0.000000
vn 0.000000 -1.000000 0.000000
vn 0.000000 -1.000000 0.000000
vn 0.000000 -1.000000 0.000000
vn 0.000000 -1.000000 0.000000
vn 0.000000 -1.000000 0.000000
vn 0.000000 -1.000000 0.000000
vn 0.000000 -1.000000 0.000000
vn 0.000000 1.000000 0.000000
vn 0.000000 1.000000 0.000000
vn 0.000000 1.000000 0.000000
vn 0.000000 1.000000 0.000000
vn 0.000000 1.000000 0.000000
vn 0.000000 1.000000 0.000000
vn 0.000000 1.000000 0.000000
vn 0.000000 1.000000 0.000000
vn 0.000000 1.000000 0.000000
vn 0.000000 1.000000 0.000000
vn 0.000000 1.000000 0.000000
vn 0.000000 1.000000 0.000000
vn 0.000000 1.000000 0.000000
vn 0.000000 1.000000 0.000000
vn 0.000000 1.000000 0.000000
vn 0.000000 1.000000 0.000000
vn 0.000000 1.000000 0.000000
vn 0.000000 1.000000 0.000000
vn 0.000000 1.000000 0.000000
vn 0.000000 1.000000 0.000000
vn 0.000000 1.000000 0.000000
s 1
g chair112
usemtl initialShadingGroup
f 59/133/131 60/134/132 80/155/133 79/154/134
f 60/134/132 61/135/135 81/156/136 80/155/133
f 61/135/135 62/136/137 82/157/138 81/156/136
f 62/136/137 63/137/139 83/158/140 82/157/138
f 63/137/139 64/138/141 84/159/142 83/158/140
f 64/138/141 65/139/143 85/160/144 84/159/142
f 65/139/143 66/140/145 86/161/146 85/160/144
f 66/140/145 67/141/147 87/162/148 86/161/146
f 67/141/147 68/142/149 88/163/150 87/162/148
f 68/142/149 69/143/151 89/164/152 88/163/150
f 69/143/151 70/144/153 90/165/154 89/164/152
f 70/144/153 71/145/155 91/166/156 90/165/154
f 71/145/155 72/146/157 92/167/158 91/166/156
f 72/146/157 73/147/159 93/168/160 92/167/158
f 73/147/159 74/148/161 94/169/162 93/168/160
f 74/148/161 75/149/163 95/170/164 94/169/162
f 75/149/163 76/150/165 96/171/166 95/170/164
f 76/150/165 77/151/167 97/172/168 96/171/166
f 77/151/167 78/152/169 98/173/170 97/172/168
f 78/152/169 59/153/131 79/174/134 98/173/170
s 2
f 60/114/171 59/113/172 99/195/173
f 61/115/174 60/114/171 99/195/173
f 62/116/175 61/115/174 99/195/173
f 63/117/176 62/116/175 99/195/173
f 64/118/177 63/117/176 99/195/173
f 65/119/178 64/118/177 99/195/173
f 66/120/179 65/119/178 99/195/173
f 67/121/180 66/120/179 99/195/173
f 68/122/181 67/121/180 99/195/173
f 69/123/182 68/122/181 99/195/173
f 70/124/183 69/123/182 99/195/173
f 71/125/184 70/124/183 99/195/173
f 72/126/185 71/125/184 99/195/173
f 73/127/186 72/126/185 99/195/173
f 74/128/187 73/127/186 99/195/173
f 75/129/188 74/128/187 99/195/173
f 76/130/189 75/129/188 99/195/173
f 77/131/190 76/130/189 99/195/173
f 78/132/191 77/131/190 99/195/173
f 59/113/172 78/132/191 99/195/173
s 3
f 79/193/192 80/192/193 100/196/194
f 80/192/193 81/191/195 100/196/194
f 81/191/195 82/190/196 100/196/194
f 82/190/196 83/189/197 100/196/194
f 83/189/197 84/188/198 100/196/194
f 84/188/198 85/187/199 100/196/194
f 85/187/199 86/186/200 100/196/194
f 86/186/200 87/185/201 100/196/194
f 87/185/201 88/184/202 100/196/194
f 88/184/202 89/183/203 100/196/194
f 89/183/203 90/182/204 100/196/194
f 90/182/204 91/181/205 100/196/194
f 91/181/205 92/180/206 100/196/194
f 92/180/206 93/179/207 100/196/194
f 93/179/207 94/178/208 100/196/194
f 94/178/208 95/177/209 100/196/194
f 95/177/209 96/176/210 100/196/194
f 96/176/210 97/175/211 100/196/194
f 97/175/211 98/194/212 100/196/194
f 98/194/212 79/193/192 100/196/194
g default
v -250.000000 -0.500000 250.000000
v 250.000000 -0.500000 250.000000
v -250.000000 0.500000 250.000000
v 250.000000 0.500000 250.000000
v -250.000000 0.500000 -250.000000
v 250.000000 0.500000 -250.000000
v -250.000000 -0.500000 -250.000000
v 250.000000 -0.500000 -250.000000
vt 0.375000 0.000000
vt 0.625000 0.000000
vt 0.375000 0.250000
vt 0.625000 0.250000
vt 0.375000 0.500000
vt 0.625000 0.500000
vt 0.375000 0.750000
vt 0.625000 0.750000
vt 0.375000 1.000000
vt 0.625000 1.000000
vt 0.875000 0.000000
vt 0.875000 0.250000
vt 0.125000 0.000000
vt 0.125000 0.250000
vn 0.000000 0.000000 1.000000
vn 0.000000 0.000000 1.000000
vn 0.000000 0.000000 1.000000
vn 0.000000 0.000000 1.000000
vn 0.000000 1.000000 0.000000
vn 0.000000 1.000000 0.000000
vn 0.000000 1.000000 0.000000
vn 0.000000 1.000000 0.000000
vn 0.000000 0.000000 -1.000000
vn 0.000000 0.000000 -1.000000
vn 0.000000 0.000000 -1.000000
vn 0.000000 0.000000 -1.000000
vn 0.000000 -1.000000 0.000000
vn 0.000000 -1.000000 0.000000
vn 0.000000 -1.000000 0.000000
vn 0.000000 -1.000000 0.000000
vn 1.000000 0.000000 0.000000
vn 1.000000 0.000000 0.000000
vn 1.000000 0.000000 0.000000
vn 1.000000 0.000000 0.000000
vn -1.000000 0.000000 0.000000
vn -1.000000 0.000000 0.000000
vn -1.000000 0.000000 0.000000
vn -1.000000 0.000000 0.000000
s off
g floor
usemtl initialShadingGroup
f 101/197/213 102/198/214 104/200/215 103/199/216
f 103/199/217 104/200/218 106/202/219 105/201/220
f 105/201/221 106/202/222 108/204/223 107/203/224
f 107/203/225 108/204/226 102/206/227 101/205/228
f 102/198/229 108/207/230 106/208/231 104/200/232
f 107/209/233 101/197/234 103/199/235 105/210/236
